<svg xmlns="http://www.w3.org/2000/svg" width="40" height="40" viewBox="0 0 40 40"><path d="M104,7399a20.256,20.256,0,0,1,20,20.5,20.48,20.48,0,0,1-13.666,19.461c-1.014.2-1.374-.44-1.374-.979,0-.681.024-2.881.024-5.641a4.953,4.953,0,0,0-1.358-3.781c4.454-.52,9.134-2.239,9.134-10.119a7.984,7.984,0,0,0-2.06-5.5,7.565,7.565,0,0,0-.2-5.44s-1.676-.54-5.494,2.1a18.79,18.79,0,0,0-10.016,0c-3.822-2.64-5.5-2.1-5.5-2.1a7.6,7.6,0,0,0-.194,5.44,8.012,8.012,0,0,0-2.06,5.5c0,7.859,4.67,9.619,9.112,10.14a4.334,4.334,0,0,0-1.27,2.741,4.205,4.205,0,0,1-5.82-1.722,4.2,4.2,0,0,0-3.066-2.1s-1.95-.04-.136,1.24a5.449,5.449,0,0,1,2.22,3s1.174,3.66,6.738,2.42c.01,1.72.028,3.34.028,3.82,0,.539-.368,1.18-1.366.979A20.464,20.464,0,0,1,84,7419.5a20.258,20.258,0,0,1,20-20.5" transform="translate(-84 -7398.999)" fill-rule="evenodd"/></svg>