<?xml version="1.0" standalone="no"?>
<!DOCTYPE svg PUBLIC "-//W3C//DTD SVG 20010904//EN"
 "http://www.w3.org/TR/2001/REC-SVG-20010904/DTD/svg10.dtd">
<svg version="1.0" xmlns="http://www.w3.org/2000/svg"
 width="300.000000pt" height="300.000000pt" viewBox="0 0 300.000000 300.000000"
 preserveAspectRatio="xMidYMid meet">
<metadata>
Created by potrace 1.14, written by Peter Selinger 2001-2017
</metadata>
<g transform="translate(0.000000,300.000000) scale(0.100000,-0.100000)"
fill="#000000" stroke="none">
<path d="M1485 2420 c-369 -44 -596 -142 -773 -334 -214 -232 -292 -610 -202
-968 22 -85 91 -242 132 -301 12 -17 15 -27 7 -20 -15 12 -43 11 -179 -2 -73
-7 -252 -32 -290 -40 -14 -3 -38 -8 -55 -11 -50 -9 -103 -44 -98 -64 14 -53
282 -141 573 -189 393 -65 661 -84 1170 -85 510 -1 633 10 751 69 38 20 69 39
69 43 0 11 -151 57 -175 53 -11 -2 50 33 135 76 85 43 174 91 198 106 l42 27
0 78 c0 42 -7 203 -15 357 -8 154 -15 298 -15 320 l0 40 -63 23 -63 22 -470
-25 c-258 -14 -497 -25 -532 -25 l-63 0 6 -127 c3 -71 8 -166 11 -212 l6 -84
224 5 224 5 0 -86 0 -87 -75 -37 c-140 -70 -205 -82 -310 -53 -167 44 -256
153 -291 356 -22 126 -15 308 15 400 52 160 177 251 369 267 70 6 74 5 103
-23 17 -16 39 -45 50 -66 17 -32 27 -39 108 -66 l89 -30 306 67 c178 38 306
71 306 77 0 23 -71 151 -114 205 -75 95 -308 260 -428 303 -163 58 -392 70
-683 36z"/>
</g>
</svg>
